<svg width="401" height="52" viewBox="0 0 401 52" fill="none" xmlns="http://www.w3.org/2000/svg">
<path d="M44.6226 34.3311C47.243 34.3311 49.3672 36.383 49.3672 38.9143C49.3672 41.4456 47.243 43.4976 44.6226 43.4976C42.0022 43.4976 39.8779 41.4456 39.8779 38.9143C39.8779 36.383 42.0022 34.3311 44.6226 34.3311Z" fill="#73C431"/>
<path d="M44.6226 13.8643C47.243 13.8643 49.3672 15.9163 49.3672 18.4475C49.3672 20.9788 47.243 23.0308 44.6226 23.0308C42.0022 23.0308 39.8779 20.9788 39.8779 18.4475C39.8779 15.9163 42.0022 13.8643 44.6226 13.8643Z" fill="#73C431"/>
<path d="M44.6226 27.5117C47.243 27.5117 49.3672 29.5637 49.3672 32.095C49.3672 34.6262 47.243 36.6782 44.6226 36.6782C42.0022 36.6782 39.8779 34.6262 39.8779 32.095C39.8779 29.5637 42.0022 27.5117 44.6226 27.5117Z" fill="#73C431"/>
<path d="M44.6226 7.05078C47.243 7.05078 49.3672 9.10277 49.3672 11.634C49.3672 14.1653 47.243 16.2173 44.6226 16.2173C42.0022 16.2173 39.8779 14.1653 39.8779 11.634C39.8779 9.10277 42.0022 7.05078 44.6226 7.05078Z" fill="#73C431"/>
<path d="M44.6226 0.227541C47.243 0.227541 49.3672 2.27953 49.3672 4.81079C49.3672 7.34205 47.243 9.39404 44.6226 9.39404C42.0022 9.39404 39.8779 7.34205 39.8779 4.81079C39.8779 2.27953 42.0022 0.227541 44.6226 0.227541Z" fill="#73C431"/>
<path d="M44.6226 20.688C47.243 20.688 49.3672 22.74 49.3672 25.2712C49.3672 27.8025 47.243 29.8545 44.6226 29.8545C42.0022 29.8545 39.8779 27.8025 39.8779 25.2712C39.8779 22.74 42.0022 20.688 44.6226 20.688Z" fill="#73C431"/>
<path d="M44.6226 41.1548C47.243 41.1548 49.3672 43.2068 49.3672 45.738C49.3672 48.2693 47.243 50.3213 44.6226 50.3213C42.0022 50.3213 39.8779 48.2693 39.8779 45.738C39.8779 43.2068 42.0022 41.1548 44.6226 41.1548Z" fill="#73C431"/>
<path d="M4.74465 34.1035C7.36505 34.1035 9.4893 36.1555 9.4893 38.6868C9.4893 41.218 7.36505 43.27 4.74465 43.27C2.12425 43.27 0 41.218 0 38.6868C0 36.1555 2.12425 34.1035 4.74465 34.1035Z" fill="#73C431"/>
<path d="M4.74465 13.6367C7.36505 13.6367 9.4893 15.6887 9.4893 18.22C9.4893 20.7512 7.36505 22.8032 4.74465 22.8032C2.12425 22.8032 0 20.7512 0 18.22C0 15.6887 2.12425 13.6367 4.74465 13.6367Z" fill="#73C431"/>
<path d="M4.74465 27.2822C7.36505 27.2822 9.4893 29.3342 9.4893 31.8655C9.4893 34.3967 7.36505 36.4487 4.74465 36.4487C2.12425 36.4487 0 34.3967 0 31.8655C0 29.3342 2.12425 27.2822 4.74465 27.2822Z" fill="#73C431"/>
<path d="M4.74465 6.82324C7.36505 6.82324 9.4893 8.87524 9.4893 11.4065C9.4893 13.9378 7.36505 15.9897 4.74465 15.9897C2.12425 15.9897 0 13.9378 0 11.4065C0 8.87524 2.12425 6.82324 4.74465 6.82324Z" fill="#73C431"/>
<path d="M4.74465 1.90735e-06C7.36505 1.90735e-06 9.4893 2.05199 9.4893 4.58325C9.4893 7.11451 7.36505 9.1665 4.74465 9.1665C2.12425 9.1665 0 7.11451 0 4.58325C0 2.05199 2.12425 1.90735e-06 4.74465 1.90735e-06Z" fill="#73C431"/>
<path d="M4.74465 20.4605C7.36505 20.4605 9.4893 22.5124 9.4893 25.0437C9.4893 27.575 7.36505 29.627 4.74465 29.627C2.12425 29.627 0 27.575 0 25.0437C0 22.5124 2.12425 20.4605 4.74465 20.4605Z" fill="#73C431"/>
<path d="M4.74465 40.9253C7.36505 40.9253 9.4893 42.9773 9.4893 45.5085C9.4893 48.0398 7.36505 50.0918 4.74465 50.0918C2.12425 50.0918 0 48.0398 0 45.5085C0 42.9773 2.12425 40.9253 4.74465 40.9253Z" fill="#73C431"/>
<path d="M30.0505 35.1132C32.4349 36.2 33.5168 38.9482 32.4669 41.2515C31.4171 43.5548 28.6331 44.5409 26.2487 43.4541C23.8643 42.3673 22.7824 39.6191 23.8323 37.3159C24.8821 35.0126 27.6661 34.0264 30.0505 35.1132Z" fill="#73C431"/>
<path d="M38.5383 16.4901C40.9227 17.5769 42.0046 20.3251 40.9547 22.6284C39.9049 24.9317 37.1209 25.9179 34.7365 24.8311C32.3521 23.7443 31.2702 20.9961 32.3201 18.6928C33.3699 16.3895 36.1539 15.4034 38.5383 16.4901Z" fill="#73C431"/>
<path d="M32.8803 28.9052C35.2647 29.992 36.3466 32.7402 35.2968 35.0435C34.247 37.3468 31.463 38.3329 29.0786 37.2461C26.6942 36.1593 25.6123 33.4111 26.6621 31.1078C27.7119 28.8046 30.4959 27.8184 32.8803 28.9052Z" fill="#73C431"/>
<path d="M41.3649 10.288C43.7493 11.3748 44.8312 14.123 43.7814 16.4263C42.7316 18.7296 39.9476 19.7157 37.5632 18.6289C35.1788 17.5422 34.0969 14.7939 35.1467 12.4907C36.1965 10.1874 38.9805 9.2012 41.3649 10.288Z" fill="#73C431"/>
<path d="M44.1945 4.07755C46.5789 5.16434 47.6608 7.91254 46.611 10.2158C45.5612 12.5191 42.7772 13.5053 40.3928 12.4185C38.0084 11.3317 36.9265 8.5835 37.9763 6.28021C39.0261 3.97692 41.8101 2.99075 44.1945 4.07755Z" fill="#73C431"/>
<path d="M35.7111 22.6986C38.0955 23.7854 39.1774 26.5336 38.1276 28.8369C37.0778 31.1402 34.2938 32.1264 31.9094 31.0396C29.525 29.9528 28.4431 27.2046 29.4929 24.9013C30.5427 22.598 33.3267 21.6118 35.7111 22.6986Z" fill="#73C431"/>
<path d="M27.2216 41.3217C29.606 42.4085 30.6879 45.1567 29.6381 47.46C28.5883 49.7633 25.8043 50.7494 23.4199 49.6626C21.0355 48.5758 19.9536 45.8276 21.0034 43.5243C22.0532 41.2211 24.8372 40.2349 27.2216 41.3217Z" fill="#73C431"/>
<path d="M19.6182 34.9721C17.2338 36.0589 16.1519 38.8071 17.2018 41.1104C18.2516 43.4137 21.0356 44.3998 23.42 43.313C25.8044 42.2262 26.8863 39.478 25.8364 37.1747C24.7866 34.8714 22.0026 33.8853 19.6182 34.9721Z" fill="#73C431"/>
<path d="M11.1299 16.349C8.74554 17.4358 7.66365 20.184 8.71347 22.4873C9.7633 24.7906 12.5473 25.7768 14.9317 24.69C17.3161 23.6032 18.398 20.855 17.3481 18.5517C16.2983 16.2484 13.5143 15.2622 11.1299 16.349Z" fill="#73C431"/>
<path d="M16.7884 28.7636C14.404 29.8504 13.3221 32.5986 14.3719 34.9019C15.4217 37.2052 18.2057 38.1913 20.5901 37.1045C22.9745 36.0177 24.0564 33.2695 23.0066 30.9662C21.9568 28.663 19.1728 27.6768 16.7884 28.7636Z" fill="#73C431"/>
<path d="M8.30303 10.1469C5.91863 11.2337 4.83674 13.9819 5.88657 16.2852C6.93639 18.5885 9.72038 19.5746 12.1048 18.4878C14.4892 17.401 15.5711 14.6528 14.5212 12.3495C13.4714 10.0463 10.6874 9.06009 8.30303 10.1469Z" fill="#73C431"/>
<path d="M5.47369 3.94083C3.08929 5.02762 2.0074 7.77583 3.05722 10.0791C4.10705 12.3824 6.89103 13.3686 9.27543 12.2818C11.6598 11.195 12.7417 8.44678 11.6919 6.14349C10.6421 3.8402 7.85809 2.85403 5.47369 3.94083Z" fill="#73C431"/>
<path d="M13.9593 22.5575C11.5749 23.6443 10.493 26.3925 11.5428 28.6958C12.5926 30.9991 15.3766 31.9853 17.761 30.8985C20.1454 29.8117 21.2273 27.0635 20.1775 24.7602C19.1277 22.4569 16.3437 21.4707 13.9593 22.5575Z" fill="#73C431"/>
<path d="M22.4478 41.1806C20.0634 42.2674 18.9815 45.0156 20.0313 47.3189C21.0812 49.6222 23.8652 50.6083 26.2496 49.5215C28.634 48.4347 29.7158 45.6865 28.666 43.3832C27.6162 41.0799 24.8322 40.0938 22.4478 41.1806Z" fill="#73C431"/>
<path d="M60.4832 34.7183C63.1036 34.7183 65.2278 36.7703 65.2278 39.3015C65.2278 41.8328 63.1036 43.8848 60.4832 43.8848C57.8628 43.8848 55.7385 41.8328 55.7385 39.3015C55.7385 36.7703 57.8628 34.7183 60.4832 34.7183Z" fill="#73C431"/>
<path d="M60.4832 14.252C63.1036 14.252 65.2278 16.3039 65.2278 18.8352C65.2278 21.3665 63.1036 23.4185 60.4832 23.4185C57.8628 23.4185 55.7385 21.3665 55.7385 18.8352C55.7385 16.3039 57.8628 14.252 60.4832 14.252Z" fill="#73C431"/>
<path d="M60.4832 27.895C63.1036 27.895 65.2278 29.947 65.2278 32.4783C65.2278 35.0095 63.1036 37.0615 60.4832 37.0615C57.8628 37.0615 55.7385 35.0095 55.7385 32.4783C55.7385 29.947 57.8628 27.895 60.4832 27.895Z" fill="#73C431"/>
<path d="M60.4832 7.43604C63.1036 7.43604 65.2278 9.48803 65.2278 12.0193C65.2278 14.5505 63.1036 16.6025 60.4832 16.6025C57.8628 16.6025 55.7385 14.5505 55.7385 12.0193C55.7385 9.48803 57.8628 7.43604 60.4832 7.43604Z" fill="#73C431"/>
<path d="M60.4832 0.612795C63.1036 0.612795 65.2278 2.66479 65.2278 5.19605C65.2278 7.72731 63.1036 9.7793 60.4832 9.7793C57.8628 9.7793 55.7385 7.72731 55.7385 5.19605C55.7385 2.66479 57.8628 0.612795 60.4832 0.612795Z" fill="#73C431"/>
<path d="M60.4832 21.0713C63.1036 21.0713 65.2278 23.1233 65.2278 25.6545C65.2278 28.1858 63.1036 30.2378 60.4832 30.2378C57.8628 30.2378 55.7385 28.1858 55.7385 25.6545C55.7385 23.1233 57.8628 21.0713 60.4832 21.0713Z" fill="#73C431"/>
<path d="M60.4832 41.5381C63.1036 41.5381 65.2278 43.5901 65.2278 46.1213C65.2278 48.6526 63.1036 50.7046 60.4832 50.7046C57.8628 50.7046 55.7385 48.6526 55.7385 46.1213C55.7385 43.5901 57.8628 41.5381 60.4832 41.5381Z" fill="#73C431"/>
<path d="M71.324 32.6712C73.3897 34.2834 73.8018 37.208 72.2444 39.2035C70.6869 41.1989 67.7498 41.5095 65.6841 39.8973C63.6184 38.285 63.2064 35.3604 64.7638 33.365C66.3212 31.3695 69.2583 31.0589 71.324 32.6712Z" fill="#73C431"/>
<path d="M83.9161 16.5359C85.9818 18.1482 86.3938 21.0728 84.8364 23.0682C83.279 25.0636 80.3419 25.3743 78.2762 23.762C76.2105 22.1498 75.7984 19.2252 77.3558 17.2297C78.9132 15.2343 81.8504 14.9237 83.9161 16.5359Z" fill="#73C431"/>
<path d="M75.521 27.2957C77.5867 28.9079 77.9988 31.8325 76.4414 33.828C74.884 35.8234 71.9469 36.134 69.8812 34.5218C67.8155 32.9095 67.4034 29.9849 68.9608 27.9895C70.5182 25.9941 73.4553 25.6834 75.521 27.2957Z" fill="#73C431"/>
<path d="M88.1097 11.1624C90.1754 12.7746 90.5874 15.6992 89.03 17.6947C87.4726 19.6901 84.5355 20.0007 82.4698 18.3885C80.4041 16.7762 79.992 13.8516 81.5494 11.8562C83.1068 9.86076 86.044 9.55013 88.1097 11.1624Z" fill="#73C431"/>
<path d="M92.3081 5.78494C94.3738 7.3972 94.7859 10.3218 93.2285 12.3172C91.6711 14.3127 88.734 14.6233 86.6683 13.011C84.6026 11.3988 84.1905 8.47418 85.7479 6.47875C87.3053 4.48332 90.2424 4.17269 92.3081 5.78494Z" fill="#73C431"/>
<path d="M79.719 21.9138C81.7847 23.5261 82.1968 26.4507 80.6394 28.4461C79.082 30.4416 76.1449 30.7522 74.0791 29.1399C72.0134 27.5277 71.6014 24.6031 73.1588 22.6077C74.7162 20.6122 77.6533 20.3016 79.719 21.9138Z" fill="#73C431"/>
<path d="M67.1275 38.0511C69.1932 39.6633 69.6052 42.5879 68.0478 44.5833C66.4904 46.5788 63.5533 46.8894 61.4876 45.2772C59.4219 43.6649 59.0098 40.7403 60.5673 38.7449C62.1247 36.7494 65.0618 36.4388 67.1275 38.0511Z" fill="#73C431"/>
<path d="M93.0786 34.7183C95.699 34.7183 97.8233 36.7703 97.8233 39.3015C97.8233 41.8328 95.699 43.8848 93.0786 43.8848C90.4582 43.8848 88.334 41.8328 88.334 39.3015C88.334 36.7703 90.4582 34.7183 93.0786 34.7183Z" fill="#73C431"/>
<path d="M93.0786 14.252C95.699 14.252 97.8233 16.3039 97.8233 18.8352C97.8233 21.3665 95.699 23.4185 93.0786 23.4185C90.4582 23.4185 88.334 21.3665 88.334 18.8352C88.334 16.3039 90.4582 14.252 93.0786 14.252Z" fill="#73C431"/>
<path d="M93.0786 27.895C95.699 27.895 97.8233 29.947 97.8233 32.4783C97.8233 35.0095 95.699 37.0615 93.0786 37.0615C90.4582 37.0615 88.334 35.0095 88.334 32.4783C88.334 29.947 90.4582 27.895 93.0786 27.895Z" fill="#73C431"/>
<path d="M93.0786 7.43604C95.699 7.43604 97.8233 9.48803 97.8233 12.0193C97.8233 14.5505 95.699 16.6025 93.0786 16.6025C90.4582 16.6025 88.334 14.5505 88.334 12.0193C88.334 9.48803 90.4582 7.43604 93.0786 7.43604Z" fill="#73C431"/>
<path d="M93.0786 0.612795C95.699 0.612795 97.8233 2.66479 97.8233 5.19605C97.8233 7.72731 95.699 9.7793 93.0786 9.7793C90.4582 9.7793 88.334 7.72731 88.334 5.19605C88.334 2.66479 90.4582 0.612795 93.0786 0.612795Z" fill="#73C431"/>
<path d="M93.0786 21.0713C95.699 21.0713 97.8233 23.1233 97.8233 25.6545C97.8233 28.1858 95.699 30.2378 93.0786 30.2378C90.4582 30.2378 88.334 28.1858 88.334 25.6545C88.334 23.1233 90.4582 21.0713 93.0786 21.0713Z" fill="#73C431"/>
<path d="M93.0786 41.5381C95.699 41.5381 97.8233 43.5901 97.8233 46.1213C97.8233 48.6526 95.699 50.7046 93.0786 50.7046C90.4582 50.7046 88.334 48.6526 88.334 46.1213C88.334 43.5901 90.4582 41.5381 93.0786 41.5381Z" fill="#73C431"/>
<path d="M157.298 0.144533C159.918 0.144533 162.043 2.19652 162.043 4.72778C162.043 7.25904 159.918 9.31104 157.298 9.31104C154.677 9.31104 152.553 7.25904 152.553 4.72778C152.553 2.19652 154.677 0.144533 157.298 0.144533Z" fill="#73C431"/>
<path d="M165.14 0.144533C167.761 0.144533 169.885 2.19652 169.885 4.72778C169.885 7.25904 167.761 9.31104 165.14 9.31104C162.52 9.31104 160.396 7.25904 160.396 4.72778C160.396 2.19652 162.52 0.144533 165.14 0.144533Z" fill="#73C431"/>
<path d="M172.793 2.67627C175.414 2.67627 177.538 4.72826 177.538 7.25952C177.538 9.79078 175.414 11.8428 172.793 11.8428C170.173 11.8428 168.049 9.79078 168.049 7.25952C168.049 4.72826 170.173 2.67627 172.793 2.67627Z" fill="#73C431"/>
<path d="M176.433 7.25635C179.053 7.25635 181.178 9.30834 181.178 11.8396C181.178 14.3709 179.053 16.4229 176.433 16.4229C173.812 16.4229 171.688 14.3709 171.688 11.8396C171.688 9.30834 173.812 7.25635 176.433 7.25635Z" fill="#73C431"/>
<path d="M176.433 14.7451C179.053 14.7451 181.178 16.7971 181.178 19.3284C181.178 21.8596 179.053 23.9116 176.433 23.9116C173.812 23.9116 171.688 21.8596 171.688 19.3284C171.688 16.7971 173.812 14.7451 176.433 14.7451Z" fill="#73C431"/>
<path d="M173.886 22.2129C176.506 22.2129 178.63 24.2649 178.63 26.7961C178.63 29.3274 176.506 31.3794 173.886 31.3794C171.265 31.3794 169.141 29.3274 169.141 26.7961C169.141 24.2649 171.265 22.2129 173.886 22.2129Z" fill="#73C431"/>
<path d="M165.792 24.7173C168.412 24.7173 170.536 26.7693 170.536 29.3005C170.536 31.8318 168.412 33.8838 165.792 33.8838C163.171 33.8838 161.047 31.8318 161.047 29.3005C161.047 26.7693 163.171 24.7173 165.792 24.7173Z" fill="#73C431"/>
<path d="M157.298 24.7173C159.918 24.7173 162.043 26.7693 162.043 29.3005C162.043 31.8318 159.918 33.8838 157.298 33.8838C154.677 33.8838 152.553 31.8318 152.553 29.3005C152.553 26.7693 154.677 24.7173 157.298 24.7173Z" fill="#73C431"/>
<path d="M152.553 34.2461C155.174 34.2461 157.298 36.2981 157.298 38.8293C157.298 41.3606 155.174 43.4126 152.553 43.4126C149.933 43.4126 147.809 41.3606 147.809 38.8293C147.809 36.2981 149.933 34.2461 152.553 34.2461Z" fill="#73C431"/>
<path d="M152.553 13.7817C155.174 13.7817 157.298 15.8337 157.298 18.365C157.298 20.8963 155.174 22.9482 152.553 22.9482C149.933 22.9482 147.809 20.8963 147.809 18.365C147.809 15.8337 149.933 13.7817 152.553 13.7817Z" fill="#73C431"/>
<path d="M152.553 27.4268C155.174 27.4268 157.298 29.4788 157.298 32.01C157.298 34.5413 155.174 36.5933 152.553 36.5933C149.933 36.5933 147.809 34.5413 147.809 32.01C147.809 29.4788 149.933 27.4268 152.553 27.4268Z" fill="#73C431"/>
<path d="M152.553 6.96631C155.174 6.96631 157.298 9.0183 157.298 11.5496C157.298 14.0808 155.174 16.1328 152.553 16.1328C149.933 16.1328 147.809 14.0808 147.809 11.5496C147.809 9.0183 149.933 6.96631 152.553 6.96631Z" fill="#73C431"/>
<path d="M152.553 0.144533C155.174 0.144533 157.298 2.19652 157.298 4.72778C157.298 7.25904 155.174 9.31104 152.553 9.31104C149.933 9.31104 147.809 7.25904 147.809 4.72778C147.809 2.19652 149.933 0.144533 152.553 0.144533Z" fill="#73C431"/>
<path d="M152.553 20.605C155.174 20.605 157.298 22.657 157.298 25.1882C157.298 27.7195 155.174 29.7715 152.553 29.7715C149.933 29.7715 147.809 27.7195 147.809 25.1882C147.809 22.657 149.933 20.605 152.553 20.605Z" fill="#73C431"/>
<path d="M152.553 41.0698C155.174 41.0698 157.298 43.1218 157.298 45.6531C157.298 48.1843 155.174 50.2363 152.553 50.2363C149.933 50.2363 147.809 48.1843 147.809 45.6531C147.809 43.1218 149.933 41.0698 152.553 41.0698Z" fill="#73C431"/>
<path d="M129.283 7.43262C131.903 7.43262 134.028 9.48461 134.028 12.0159C134.028 14.5471 131.903 16.5991 129.283 16.5991C126.663 16.5991 124.538 14.5471 124.538 12.0159C124.538 9.48461 126.663 7.43262 129.283 7.43262Z" fill="#73C431"/>
<path d="M134.028 1.93897C136.648 1.93897 138.773 3.99096 138.773 6.52222C138.773 9.05348 136.648 11.1055 134.028 11.1055C131.408 11.1055 129.283 9.05348 129.283 6.52222C129.283 3.99096 131.408 1.93897 134.028 1.93897Z" fill="#73C431"/>
<path d="M113.683 20.9478C116.304 20.9478 118.428 22.9997 118.428 25.531C118.428 28.0623 116.304 30.1143 113.683 30.1143C111.063 30.1143 108.939 28.0623 108.939 25.531C108.939 22.9997 111.063 20.9478 113.683 20.9478Z" fill="#73C431"/>
<path d="M119.792 19.4849C122.413 19.4849 124.537 21.5369 124.537 24.0681C124.537 26.5994 122.413 28.6514 119.792 28.6514C117.172 28.6514 115.048 26.5994 115.048 24.0681C115.048 21.5369 117.172 19.4849 119.792 19.4849Z" fill="#73C431"/>
<path d="M124.537 13.5083C127.158 13.5083 129.282 15.5603 129.282 18.0916C129.282 20.6228 127.158 22.6748 124.537 22.6748C121.917 22.6748 119.792 20.6228 119.792 18.0916C119.792 15.5603 121.917 13.5083 124.537 13.5083Z" fill="#73C431"/>
<path d="M123.175 25.6934C125.795 25.6934 127.919 27.7454 127.919 30.2766C127.919 32.8079 125.795 34.8599 123.175 34.8599C120.554 34.8599 118.43 32.8079 118.43 30.2766C118.43 27.7454 120.554 25.6934 123.175 25.6934Z" fill="#73C431"/>
<path d="M126.862 31.2676C129.482 31.2676 131.606 33.3196 131.606 35.8508C131.606 38.3821 129.482 40.4341 126.862 40.4341C124.241 40.4341 122.117 38.3821 122.117 35.8508C122.117 33.3196 124.241 31.2676 126.862 31.2676Z" fill="#73C431"/>
<path d="M131.606 36.9497C134.227 36.9497 136.351 39.0017 136.351 41.533C136.351 44.0642 134.227 46.1162 131.606 46.1162C128.986 46.1162 126.862 44.0642 126.862 41.533C126.862 39.0017 128.986 36.9497 131.606 36.9497Z" fill="#73C431"/>
<path d="M136.352 41.5342C138.972 41.5342 141.097 43.5862 141.097 46.1174C141.097 48.6487 138.972 50.7007 136.352 50.7007C133.732 50.7007 131.607 48.6487 131.607 46.1174C131.607 43.5862 133.732 41.5342 136.352 41.5342Z" fill="#73C431"/>
<path d="M108.938 34.7163C111.559 34.7163 113.683 36.7683 113.683 39.2996C113.683 41.8308 111.559 43.8828 108.938 43.8828C106.318 43.8828 104.194 41.8308 104.194 39.2996C104.194 36.7683 106.318 34.7163 108.938 34.7163Z" fill="#73C431"/>
<path d="M108.938 14.252C111.559 14.252 113.683 16.3039 113.683 18.8352C113.683 21.3665 111.559 23.4185 108.938 23.4185C106.318 23.4185 104.194 21.3665 104.194 18.8352C104.194 16.3039 106.318 14.252 108.938 14.252Z" fill="#73C431"/>
<path d="M108.938 27.8945C111.559 27.8945 113.683 29.9465 113.683 32.4778C113.683 35.009 111.559 37.061 108.938 37.061C106.318 37.061 104.194 35.009 104.194 32.4778C104.194 29.9465 106.318 27.8945 108.938 27.8945Z" fill="#73C431"/>
<path d="M108.938 7.43604C111.559 7.43604 113.683 9.48803 113.683 12.0193C113.683 14.5505 111.559 16.6025 108.938 16.6025C106.318 16.6025 104.194 14.5505 104.194 12.0193C104.194 9.48803 106.318 7.43604 108.938 7.43604Z" fill="#73C431"/>
<path d="M108.938 0.612795C111.559 0.612795 113.683 2.66479 113.683 5.19605C113.683 7.72731 111.559 9.7793 108.938 9.7793C106.318 9.7793 104.194 7.72731 104.194 5.19605C104.194 2.66479 106.318 0.612795 108.938 0.612795Z" fill="#73C431"/>
<path d="M108.938 21.0732C111.559 21.0732 113.683 23.1252 113.683 25.6565C113.683 28.1878 111.559 30.2397 108.938 30.2397C106.318 30.2397 104.194 28.1878 104.194 25.6565C104.194 23.1252 106.318 21.0732 108.938 21.0732Z" fill="#73C431"/>
<path d="M108.938 41.54C111.559 41.54 113.683 43.592 113.683 46.1233C113.683 48.6546 111.559 50.7065 108.938 50.7065C106.318 50.7065 104.194 48.6546 104.194 46.1233C104.194 43.592 106.318 41.54 108.938 41.54Z" fill="#73C431"/>
<path d="M208.443 0.092947C210.909 0.092947 212.908 2.02401 212.908 4.40609C212.908 6.78818 210.909 8.71924 208.443 8.71924C205.977 8.71924 203.978 6.78818 203.978 4.40609C203.978 2.02401 205.977 0.092947 208.443 0.092947Z" fill="#73C431"/>
<path d="M214.544 1.98601C217.01 1.98601 219.009 3.91707 219.009 6.29916C219.009 8.68124 217.01 10.6123 214.544 10.6123C212.078 10.6123 210.079 8.68124 210.079 6.29916C210.079 3.91707 212.078 1.98601 214.544 1.98601Z" fill="#73C431"/>
<path d="M201.248 1.95525C203.714 1.95525 205.713 3.88631 205.713 6.2684C205.713 8.65048 203.714 10.5815 201.248 10.5815C198.782 10.5815 196.783 8.65048 196.783 6.2684C196.783 3.88631 198.782 1.95525 201.248 1.95525Z" fill="#73C431"/>
<path d="M195.498 5.41228C197.964 5.41228 199.963 7.34334 199.963 9.72543C199.963 12.1075 197.964 14.0386 195.498 14.0386C193.032 14.0386 191.033 12.1075 191.033 9.72543C191.033 7.34334 193.032 5.41228 195.498 5.41228Z" fill="#73C431"/>
<path d="M219.01 6.26824C221.476 6.26824 223.475 8.1993 223.475 10.5814C223.475 12.9635 221.476 14.8945 219.01 14.8945C216.544 14.8945 214.545 12.9635 214.545 10.5814C214.545 8.1993 216.544 6.26824 219.01 6.26824Z" fill="#73C431"/>
<path d="M223.476 12.3976C225.942 12.3976 227.941 14.3287 227.941 16.7108C227.941 19.0929 225.942 21.0239 223.476 21.0239C221.01 21.0239 219.011 19.0929 219.011 16.7108C219.011 14.3287 221.01 12.3976 223.476 12.3976Z" fill="#73C431"/>
<path d="M191.834 10.6554C194.3 10.6554 196.299 12.5865 196.299 14.9686C196.299 17.3507 194.3 19.2817 191.834 19.2817C189.368 19.2817 187.369 17.3507 187.369 14.9686C187.369 12.5865 189.368 10.6554 191.834 10.6554Z" fill="#73C431"/>
<path d="M189.748 17.2512C192.214 17.2512 194.213 19.1822 194.213 21.5643C194.213 23.9464 192.214 25.8774 189.748 25.8774C187.282 25.8774 185.283 23.9464 185.283 21.5643C185.283 19.1822 187.282 17.2512 189.748 17.2512Z" fill="#73C431"/>
<path d="M225.224 18.175C227.69 18.175 229.689 20.106 229.689 22.4881C229.689 24.8702 227.69 26.8013 225.224 26.8013C222.758 26.8013 220.759 24.8702 220.759 22.4881C220.759 20.106 222.758 18.175 225.224 18.175Z" fill="#73C431"/>
<path d="M208.443 51.9998C210.909 51.9998 212.908 50.0688 212.908 47.6867C212.908 45.3046 210.909 43.3735 208.443 43.3735C205.977 43.3735 203.978 45.3046 203.978 47.6867C203.978 50.0688 205.977 51.9998 208.443 51.9998Z" fill="#73C431"/>
<path d="M214.544 49.9573C217.01 49.9573 219.009 48.0263 219.009 45.6442C219.009 43.2621 217.01 41.3311 214.544 41.3311C212.078 41.3311 210.079 43.2621 210.079 45.6442C210.079 48.0263 212.078 49.9573 214.544 49.9573Z" fill="#73C431"/>
<path d="M201.248 50.4359C203.714 50.4359 205.713 48.5048 205.713 46.1227C205.713 43.7406 203.714 41.8096 201.248 41.8096C198.782 41.8096 196.783 43.7406 196.783 46.1227C196.783 48.5048 198.782 50.4359 201.248 50.4359Z" fill="#73C431"/>
<path d="M195.015 46.0921C197.481 46.0921 199.48 44.1611 199.48 41.779C199.48 39.3969 197.481 37.4658 195.015 37.4658C192.549 37.4658 190.55 39.3969 190.55 41.779C190.55 44.1611 192.549 46.0921 195.015 46.0921Z" fill="#73C431"/>
<path d="M219.01 45.6756C221.476 45.6756 223.475 43.7445 223.475 41.3625C223.475 38.9804 221.476 37.0493 219.01 37.0493C216.544 37.0493 214.545 38.9804 214.545 41.3625C214.545 43.7445 216.544 45.6756 219.01 45.6756Z" fill="#73C431"/>
<path d="M223.476 39.5438C225.942 39.5438 227.941 37.6127 227.941 35.2306C227.941 32.8485 225.942 30.9175 223.476 30.9175C221.01 30.9175 219.011 32.8485 219.011 35.2306C219.011 37.6127 221.01 39.5438 223.476 39.5438Z" fill="#73C431"/>
<path d="M191.35 40.8489C193.816 40.8489 195.815 38.9179 195.815 36.5358C195.815 34.1537 193.816 32.2227 191.35 32.2227C188.884 32.2227 186.885 34.1537 186.885 36.5358C186.885 38.9179 188.884 40.8489 191.35 40.8489Z" fill="#73C431"/>
<path d="M189.748 33.3895C192.214 33.3895 194.213 31.4584 194.213 29.0763C194.213 26.6942 192.214 24.7632 189.748 24.7632C187.282 24.7632 185.283 26.6942 185.283 29.0763C185.283 31.4584 187.282 33.3895 189.748 33.3895Z" fill="#73C431"/>
<path d="M225.224 33.7703C227.69 33.7703 229.689 31.8393 229.689 29.4572C229.689 27.0751 227.69 25.144 225.224 25.144C222.758 25.144 220.759 27.0751 220.759 29.4572C220.759 31.8393 222.758 33.7703 225.224 33.7703Z" fill="#73C431"/>
<path d="M294.049 28.6987C296.669 28.6987 298.793 30.7507 298.793 33.282C298.793 35.8132 296.669 37.8652 294.049 37.8652C291.428 37.8652 289.304 35.8132 289.304 33.282C289.304 30.7507 291.428 28.6987 294.049 28.6987Z" fill="#73C431"/>
<path d="M301.972 28.6987C304.592 28.6987 306.717 30.7507 306.717 33.282C306.717 35.8132 304.592 37.8652 301.972 37.8652C299.352 37.8652 297.227 35.8132 297.227 33.282C297.227 30.7507 299.352 28.6987 301.972 28.6987Z" fill="#73C431"/>
<path d="M281.553 41.9214C284.173 41.9214 286.298 43.9734 286.298 46.5046C286.298 49.0359 284.173 51.0879 281.553 51.0879C278.933 51.0879 276.808 49.0359 276.808 46.5046C276.808 43.9734 278.933 41.9214 281.553 41.9214Z" fill="#73C431"/>
<path d="M283.538 34.9858C286.159 34.9858 288.283 37.0378 288.283 39.5691C288.283 42.1004 286.159 44.1523 283.538 44.1523C280.918 44.1523 278.794 42.1004 278.794 39.5691C278.794 37.0378 280.918 34.9858 283.538 34.9858Z" fill="#73C431"/>
<path d="M285.817 28.2451C288.438 28.2451 290.562 30.2971 290.562 32.8284C290.562 35.3596 288.438 37.4116 285.817 37.4116C283.197 37.4116 281.073 35.3596 281.073 32.8284C281.073 30.2971 283.197 28.2451 285.817 28.2451Z" fill="#73C431"/>
<path d="M291.045 15.5718C293.665 15.5718 295.789 17.6238 295.789 20.155C295.789 22.6863 293.665 24.7383 291.045 24.7383C288.424 24.7383 286.3 22.6863 286.3 20.155C286.3 17.6238 288.424 15.5718 291.045 15.5718Z" fill="#73C431"/>
<path d="M293.701 8.46826C296.322 8.46826 298.446 10.5203 298.446 13.0515C298.446 15.5828 296.322 17.6348 293.701 17.6348C291.081 17.6348 288.957 15.5828 288.957 13.0515C288.957 10.5203 291.081 8.46826 293.701 8.46826Z" fill="#73C431"/>
<path d="M297.211 1.34619C299.831 1.34619 301.955 3.39818 301.955 5.92944C301.955 8.4607 299.831 10.5127 297.211 10.5127C294.59 10.5127 292.466 8.4607 292.466 5.92944C292.466 3.39818 294.59 1.34619 297.211 1.34619Z" fill="#73C431"/>
<path d="M301.236 7.5918C303.856 7.5918 305.98 9.64379 305.98 12.175C305.98 14.7063 303.856 16.7583 301.236 16.7583C298.615 16.7583 296.491 14.7063 296.491 12.175C296.491 9.64379 298.615 7.5918 301.236 7.5918Z" fill="#73C431"/>
<path d="M304.039 15.0288C306.659 15.0288 308.783 17.0808 308.783 19.6121C308.783 22.1433 306.659 24.1953 304.039 24.1953C301.418 24.1953 299.294 22.1433 299.294 19.6121C299.294 17.0808 301.418 15.0288 304.039 15.0288Z" fill="#73C431"/>
<path d="M307.215 21.7573C309.835 21.7573 311.96 23.8093 311.96 26.3406C311.96 28.8718 309.835 30.9238 307.215 30.9238C304.594 30.9238 302.47 28.8718 302.47 26.3406C302.47 23.8093 304.594 21.7573 307.215 21.7573Z" fill="#73C431"/>
<path d="M309.527 29.3223C312.147 29.3223 314.272 31.3743 314.272 33.9055C314.272 36.4368 312.147 38.4888 309.527 38.4888C306.906 38.4888 304.782 36.4368 304.782 33.9055C304.782 31.3743 306.906 29.3223 309.527 29.3223Z" fill="#73C431"/>
<path d="M288.284 22.1777C290.905 22.1777 293.029 24.2297 293.029 26.761C293.029 29.2922 290.905 31.3442 288.284 31.3442C285.664 31.3442 283.54 29.2922 283.54 26.761C283.54 24.2297 285.664 22.1777 288.284 22.1777Z" fill="#73C431"/>
<path d="M311.961 35.9287C314.581 35.9287 316.706 37.9807 316.706 40.512C316.706 43.0432 314.581 45.0952 311.961 45.0952C309.341 45.0952 307.216 43.0432 307.216 40.512C307.216 37.9807 309.341 35.9287 311.961 35.9287Z" fill="#73C431"/>
<path d="M314.273 41.9214C316.894 41.9214 319.018 43.9734 319.018 46.5046C319.018 49.0359 316.894 51.0879 314.273 51.0879C311.653 51.0879 309.529 49.0359 309.529 46.5046C309.529 43.9734 311.653 41.9214 314.273 41.9214Z" fill="#73C431"/>
<path d="M333.172 0.996584C335.793 0.996584 337.917 3.04858 337.917 5.57983C337.917 8.11109 335.793 10.1631 333.172 10.1631C330.552 10.1631 328.427 8.11109 328.427 5.57983C328.427 3.04858 330.552 0.996584 333.172 0.996584Z" fill="#73C431"/>
<path d="M341.015 0.996584C343.636 0.996584 345.76 3.04858 345.76 5.57983C345.76 8.11109 343.636 10.1631 341.015 10.1631C338.395 10.1631 336.271 8.11109 336.271 5.57983C336.271 3.04858 338.395 0.996584 341.015 0.996584Z" fill="#73C431"/>
<path d="M348.669 3.52783C351.29 3.52783 353.414 5.57983 353.414 8.11108C353.414 10.6423 351.29 12.6943 348.669 12.6943C346.049 12.6943 343.925 10.6423 343.925 8.11108C343.925 5.57983 346.049 3.52783 348.669 3.52783Z" fill="#73C431"/>
<path d="M352.309 8.11231C354.929 8.11231 357.054 10.1643 357.054 12.6956C357.054 15.2268 354.929 17.2788 352.309 17.2788C349.688 17.2788 347.564 15.2268 347.564 12.6956C347.564 10.1643 349.688 8.11231 352.309 8.11231Z" fill="#73C431"/>
<path d="M352.309 15.5986C354.929 15.5986 357.054 17.6506 357.054 20.1819C357.054 22.7131 354.929 24.7651 352.309 24.7651C349.688 24.7651 347.564 22.7131 347.564 20.1819C347.564 17.6506 349.688 15.5986 352.309 15.5986Z" fill="#73C431"/>
<path d="M349.761 23.0645C352.381 23.0645 354.505 25.1164 354.505 27.6477C354.505 30.179 352.381 32.231 349.761 32.231C347.14 32.231 345.016 30.179 345.016 27.6477C345.016 25.1164 347.14 23.0645 349.761 23.0645Z" fill="#73C431"/>
<path d="M341.668 25.5688C344.288 25.5688 346.412 27.6208 346.412 30.1521C346.412 32.6834 344.288 34.7354 341.668 34.7354C339.047 34.7354 336.923 32.6834 336.923 30.1521C336.923 27.6208 339.047 25.5688 341.668 25.5688Z" fill="#73C431"/>
<path d="M333.172 25.5688C335.793 25.5688 337.917 27.6208 337.917 30.1521C337.917 32.6834 335.793 34.7354 333.172 34.7354C330.552 34.7354 328.427 32.6834 328.427 30.1521C328.427 27.6208 330.552 25.5688 333.172 25.5688Z" fill="#73C431"/>
<path d="M328.428 35.0996C331.049 35.0996 333.173 37.1516 333.173 39.6829C333.173 42.2141 331.049 44.2661 328.428 44.2661C325.808 44.2661 323.684 42.2141 323.684 39.6829C323.684 37.1516 325.808 35.0996 328.428 35.0996Z" fill="#73C431"/>
<path d="M328.428 14.6333C331.049 14.6333 333.173 16.6853 333.173 19.2166C333.173 21.7478 331.049 23.7998 328.428 23.7998C325.808 23.7998 323.684 21.7478 323.684 19.2166C323.684 16.6853 325.808 14.6333 328.428 14.6333Z" fill="#73C431"/>
<path d="M328.428 28.2798C331.049 28.2798 333.173 30.3318 333.173 32.863C333.173 35.3943 331.049 37.4463 328.428 37.4463C325.808 37.4463 323.684 35.3943 323.684 32.863C323.684 30.3318 325.808 28.2798 328.428 28.2798Z" fill="#73C431"/>
<path d="M328.428 7.81983C331.049 7.81983 333.173 9.87182 333.173 12.4031C333.173 14.9343 331.049 16.9863 328.428 16.9863C325.808 16.9863 323.684 14.9343 323.684 12.4031C323.684 9.87182 325.808 7.81983 328.428 7.81983Z" fill="#73C431"/>
<path d="M328.428 0.996096C331.049 0.996096 333.173 3.04809 333.173 5.57935C333.173 8.11061 331.049 10.1626 328.428 10.1626C325.808 10.1626 323.684 8.11061 323.684 5.57935C323.684 3.04809 325.808 0.996096 328.428 0.996096Z" fill="#73C431"/>
<path d="M328.428 21.4565C331.049 21.4565 333.173 23.5085 333.173 26.0398C333.173 28.5711 331.049 30.623 328.428 30.623C325.808 30.623 323.684 28.5711 323.684 26.0398C323.684 23.5085 325.808 21.4565 328.428 21.4565Z" fill="#73C431"/>
<path d="M328.428 41.9233C331.049 41.9233 333.173 43.9753 333.173 46.5066C333.173 49.0379 331.049 51.0898 328.428 51.0898C325.808 51.0898 323.684 49.0379 323.684 46.5066C323.684 43.9753 325.808 41.9233 328.428 41.9233Z" fill="#73C431"/>
<path d="M389.151 8.53418C391.772 8.53418 393.896 10.5862 393.896 13.1174C393.896 15.6487 391.772 17.7007 389.151 17.7007C386.531 17.7007 384.407 15.6487 384.407 13.1174C384.407 10.5862 386.531 8.53418 389.151 8.53418Z" fill="#73C431"/>
<path d="M393.896 3.03858C396.516 3.03858 398.641 5.09057 398.641 7.62183C398.641 10.1531 396.516 12.2051 393.896 12.2051C391.276 12.2051 389.151 10.1531 389.151 7.62183C389.151 5.09057 391.276 3.03858 393.896 3.03858Z" fill="#73C431"/>
<path d="M373.551 22.0513C376.172 22.0513 378.296 24.1033 378.296 26.6345C378.296 29.1658 376.172 31.2178 373.551 31.2178C370.931 31.2178 368.807 29.1658 368.807 26.6345C368.807 24.1033 370.931 22.0513 373.551 22.0513Z" fill="#73C431"/>
<path d="M379.66 20.5889C382.281 20.5889 384.405 22.6409 384.405 25.1721C384.405 27.7034 382.281 29.7554 379.66 29.7554C377.04 29.7554 374.916 27.7034 374.916 25.1721C374.916 22.6409 377.04 20.5889 379.66 20.5889Z" fill="#73C431"/>
<path d="M384.405 14.6123C387.025 14.6123 389.15 16.6643 389.15 19.1956C389.15 21.7268 387.025 23.7788 384.405 23.7788C381.785 23.7788 379.66 21.7268 379.66 19.1956C379.66 16.6643 381.785 14.6123 384.405 14.6123Z" fill="#73C431"/>
<path d="M383.042 26.7949C385.662 26.7949 387.786 28.8469 387.786 31.3782C387.786 33.9094 385.662 35.9614 383.042 35.9614C380.421 35.9614 378.297 33.9094 378.297 31.3782C378.297 28.8469 380.421 26.7949 383.042 26.7949Z" fill="#73C431"/>
<path d="M386.73 32.3716C389.35 32.3716 391.474 34.4236 391.474 36.9548C391.474 39.4861 389.35 41.5381 386.73 41.5381C384.109 41.5381 381.985 39.4861 381.985 36.9548C381.985 34.4236 384.109 32.3716 386.73 32.3716Z" fill="#73C431"/>
<path d="M391.475 38.0537C394.096 38.0537 396.22 40.1057 396.22 42.637C396.22 45.1682 394.096 47.2202 391.475 47.2202C388.855 47.2202 386.73 45.1682 386.73 42.637C386.73 40.1057 388.855 38.0537 391.475 38.0537Z" fill="#73C431"/>
<path d="M396.22 42.6382C398.84 42.6382 400.964 44.6902 400.964 47.2214C400.964 49.7527 398.84 51.8047 396.22 51.8047C393.599 51.8047 391.475 49.7527 391.475 47.2214C391.475 44.6902 393.599 42.6382 396.22 42.6382Z" fill="#73C431"/>
<path d="M368.805 35.8164C371.426 35.8164 373.55 37.8684 373.55 40.3997C373.55 42.9309 371.426 44.9829 368.805 44.9829C366.185 44.9829 364.061 42.9309 364.061 40.3997C364.061 37.8684 366.185 35.8164 368.805 35.8164Z" fill="#73C431"/>
<path d="M368.805 15.3521C371.426 15.3521 373.55 17.404 373.55 19.9353C373.55 22.4666 371.426 24.5186 368.805 24.5186C366.185 24.5186 364.061 22.4666 364.061 19.9353C364.061 17.404 366.185 15.3521 368.805 15.3521Z" fill="#73C431"/>
<path d="M368.805 28.9971C371.426 28.9971 373.55 31.0491 373.55 33.5803C373.55 36.1116 371.426 38.1636 368.805 38.1636C366.185 38.1636 364.061 36.1116 364.061 33.5803C364.061 31.0491 366.185 28.9971 368.805 28.9971Z" fill="#73C431"/>
<path d="M368.805 8.53662C371.426 8.53662 373.55 10.5886 373.55 13.1199C373.55 15.6511 371.426 17.7031 368.805 17.7031C366.185 17.7031 364.061 15.6511 364.061 13.1199C364.061 10.5886 366.185 8.53662 368.805 8.53662Z" fill="#73C431"/>
<path d="M368.805 1.71289C371.426 1.71289 373.55 3.76488 373.55 6.29614C373.55 8.8274 371.426 10.8794 368.805 10.8794C366.185 10.8794 364.061 8.8274 364.061 6.29614C364.061 3.76488 366.185 1.71289 368.805 1.71289Z" fill="#73C431"/>
<path d="M368.805 22.1733C371.426 22.1733 373.55 24.2253 373.55 26.7566C373.55 29.2879 371.426 31.3398 368.805 31.3398C366.185 31.3398 364.061 29.2879 364.061 26.7566C364.061 24.2253 366.185 22.1733 368.805 22.1733Z" fill="#73C431"/>
<path d="M368.805 42.6401C371.426 42.6401 373.55 44.6921 373.55 47.2234C373.55 49.7546 371.426 51.8066 368.805 51.8066C366.185 51.8066 364.061 49.7546 364.061 47.2234C364.061 44.6921 366.185 42.6401 368.805 42.6401Z" fill="#73C431"/>
<path d="M237.23 34.8101C239.85 34.8101 241.974 36.8621 241.974 39.3933C241.974 41.9246 239.85 43.9766 237.23 43.9766C234.609 43.9766 232.485 41.9246 232.485 39.3933C232.485 36.8621 234.609 34.8101 237.23 34.8101Z" fill="#73C431"/>
<path d="M237.23 14.3457C239.85 14.3457 241.974 16.3977 241.974 18.929C241.974 21.4602 239.85 23.5122 237.23 23.5122C234.609 23.5122 232.485 21.4602 232.485 18.929C232.485 16.3977 234.609 14.3457 237.23 14.3457Z" fill="#73C431"/>
<path d="M237.23 27.9888C239.85 27.9888 241.974 30.0408 241.974 32.572C241.974 35.1033 239.85 37.1553 237.23 37.1553C234.609 37.1553 232.485 35.1033 232.485 32.572C232.485 30.0408 234.609 27.9888 237.23 27.9888Z" fill="#73C431"/>
<path d="M237.23 7.53028C239.85 7.53028 241.974 9.58227 241.974 12.1135C241.974 14.6448 239.85 16.6968 237.23 16.6968C234.609 16.6968 232.485 14.6448 232.485 12.1135C232.485 9.58227 234.609 7.53028 237.23 7.53028Z" fill="#73C431"/>
<path d="M237.23 0.706545C239.85 0.706545 241.974 2.75854 241.974 5.2898C241.974 7.82106 239.85 9.87305 237.23 9.87305C234.609 9.87305 232.485 7.82106 232.485 5.2898C232.485 2.75854 234.609 0.706545 237.23 0.706545Z" fill="#73C431"/>
<path d="M237.23 21.167C239.85 21.167 241.974 23.219 241.974 25.7502C241.974 28.2815 239.85 30.3335 237.23 30.3335C234.609 30.3335 232.485 28.2815 232.485 25.7502C232.485 23.219 234.609 21.167 237.23 21.167Z" fill="#73C431"/>
<path d="M237.23 41.6338C239.85 41.6338 241.974 43.6858 241.974 46.217C241.974 48.7483 239.85 50.8003 237.23 50.8003C234.609 50.8003 232.485 48.7483 232.485 46.217C232.485 43.6858 234.609 41.6338 237.23 41.6338Z" fill="#73C431"/>
<path d="M267.397 34.8101C270.018 34.8101 272.142 36.8621 272.142 39.3933C272.142 41.9246 270.018 43.9766 267.397 43.9766C264.777 43.9766 262.653 41.9246 262.653 39.3933C262.653 36.8621 264.777 34.8101 267.397 34.8101Z" fill="#73C431"/>
<path d="M267.397 14.3457C270.018 14.3457 272.142 16.3977 272.142 18.929C272.142 21.4602 270.018 23.5122 267.397 23.5122C264.777 23.5122 262.653 21.4602 262.653 18.929C262.653 16.3977 264.777 14.3457 267.397 14.3457Z" fill="#73C431"/>
<path d="M267.397 27.9888C270.018 27.9888 272.142 30.0408 272.142 32.572C272.142 35.1033 270.018 37.1553 267.397 37.1553C264.777 37.1553 262.653 35.1033 262.653 32.572C262.653 30.0408 264.777 27.9888 267.397 27.9888Z" fill="#73C431"/>
<path d="M267.397 7.53028C270.018 7.53028 272.142 9.58227 272.142 12.1135C272.142 14.6448 270.018 16.6968 267.397 16.6968C264.777 16.6968 262.653 14.6448 262.653 12.1135C262.653 9.58227 264.777 7.53028 267.397 7.53028Z" fill="#73C431"/>
<path d="M267.397 0.706545C270.018 0.706545 272.142 2.75854 272.142 5.2898C272.142 7.82106 270.018 9.87305 267.397 9.87305C264.777 9.87305 262.653 7.82106 262.653 5.2898C262.653 2.75854 264.777 0.706545 267.397 0.706545Z" fill="#73C431"/>
<path d="M267.397 21.167C270.018 21.167 272.142 23.219 272.142 25.7502C272.142 28.2815 270.018 30.3335 267.397 30.3335C264.777 30.3335 262.653 28.2815 262.653 25.7502C262.653 23.219 264.777 21.167 267.397 21.167Z" fill="#73C431"/>
<path d="M267.397 41.6338C270.018 41.6338 272.142 43.6858 272.142 46.217C272.142 48.7483 270.018 50.8003 267.397 50.8003C264.777 50.8003 262.653 48.7483 262.653 46.217C262.653 43.6858 264.777 41.6338 267.397 41.6338Z" fill="#73C431"/>
<path d="M262.652 0.196779C265.273 0.196779 267.397 2.24877 267.397 4.78003C267.397 7.31129 265.273 9.36328 262.652 9.36328C260.032 9.36328 257.908 7.31129 257.908 4.78003C257.908 2.24877 260.032 0.196779 262.652 0.196779Z" fill="#73C431"/>
<path d="M256.375 0.196779C258.995 0.196779 261.119 2.24877 261.119 4.78003C261.119 7.31129 258.995 9.36328 256.375 9.36328C253.754 9.36328 251.63 7.31129 251.63 4.78003C251.63 2.24877 253.754 0.196779 256.375 0.196779Z" fill="#73C431"/>
<path d="M247.802 0.196779C250.423 0.196779 252.547 2.24877 252.547 4.78003C252.547 7.31129 250.423 9.36328 247.802 9.36328C245.182 9.36328 243.058 7.31129 243.058 4.78003C243.058 2.24877 245.182 0.196779 247.802 0.196779Z" fill="#73C431"/>
<path d="M239.578 0.196779C242.198 0.196779 244.322 2.24877 244.322 4.78003C244.322 7.31129 242.198 9.36328 239.578 9.36328C236.957 9.36328 234.833 7.31129 234.833 4.78003C234.833 2.24877 236.957 0.196779 239.578 0.196779Z" fill="#73C431"/>
</svg>
